<svg width="207" height="58" viewBox="0 0 207 58" fill="none" xmlns="http://www.w3.org/2000/svg">
<path d="M17.0959 0.823999C20.3599 0.823999 23.1119 1.512 25.3519 2.888C27.5919 4.264 29.3839 6.056 30.7279 8.264H26.3119C24.9359 6.344 23.3199 4.792 21.4639 3.608C19.6079 2.392 17.5759 1.784 15.3679 1.784C14.1199 1.784 12.7919 2.024 11.3839 2.504C9.49594 3.144 7.97594 4.12 6.82394 5.432C5.67194 6.744 4.82394 8.264 4.27994 9.992C3.76794 11.688 3.52794 13.512 3.55994 15.464C3.62394 17.384 3.91194 19.304 4.42394 21.224C4.96794 23.112 5.71994 24.92 6.67994 26.648C7.63994 28.376 8.75994 29.88 10.0399 31.16C11.3519 32.408 12.7759 33.368 14.3119 34.04C15.8799 34.68 17.5439 34.888 19.3039 34.664C20.9039 34.44 22.2959 34.008 23.4799 33.368C24.6959 32.696 25.7199 31.896 26.5519 30.968C27.4159 30.008 28.1199 28.968 28.6639 27.848C29.2079 26.696 29.6239 25.544 29.9119 24.392C30.1999 23.24 30.4079 22.104 30.5359 20.984C30.6639 19.864 30.8079 18.872 30.9679 18.008C31.1599 17.112 31.4159 16.408 31.7359 15.896C32.0559 15.352 32.5519 15.08 33.2239 15.08C33.7679 15.08 34.2319 15.352 34.6159 15.896C34.9999 16.44 35.3839 17.112 35.7679 17.912C36.1519 18.712 36.5679 19.576 37.0159 20.504C37.4959 21.4 38.1039 22.216 38.8399 22.952C39.5759 23.656 40.4879 24.216 41.5759 24.632C42.6959 25.016 44.0719 25.096 45.7039 24.872L36.9679 1.4H40.4239L51.4159 30.776C51.8639 31.896 52.3919 32.776 52.9999 33.416C53.6079 34.024 54.3119 34.552 55.1119 35H47.3839C47.8639 34.552 48.1679 34.024 48.2959 33.416C48.4559 32.776 48.3279 31.896 47.9119 30.776L45.8959 25.304C44.1679 25.528 42.7119 25.448 41.5279 25.064C40.3759 24.648 39.3999 24.088 38.5999 23.384C37.8319 22.648 37.2079 21.832 36.7279 20.936C36.2479 20.04 35.8319 19.192 35.4799 18.392C35.1279 17.592 34.7759 16.92 34.4239 16.376C34.1039 15.832 33.7039 15.56 33.2239 15.56C32.6479 15.56 32.2319 15.816 31.9759 16.328C31.7199 16.808 31.5119 17.464 31.3519 18.296C31.1919 19.128 31.0479 20.088 30.9199 21.176C30.8239 22.264 30.6319 23.384 30.3439 24.536C30.0239 25.848 29.5439 27.16 28.9039 28.472C28.2959 29.752 27.4639 30.92 26.4079 31.976C25.3519 33 24.0559 33.848 22.5199 34.52C20.9839 35.192 19.1439 35.544 16.9999 35.576C14.2799 35.576 11.9119 35.08 9.89594 34.088C7.87994 33.096 6.18394 31.784 4.80794 30.152C3.46394 28.52 2.45594 26.664 1.78394 24.584C1.14394 22.504 0.823938 20.376 0.823938 18.2C0.823938 16.024 1.15994 13.896 1.83194 11.816C2.53594 9.736 3.55994 7.88 4.90394 6.248C6.24794 4.616 7.92794 3.304 9.94394 2.312C11.9919 1.32 14.3759 0.823999 17.0959 0.823999ZM68.9022 1.4C71.0462 1.4 72.8702 1.736 74.3742 2.408C75.8782 3.08 77.0462 3.944 77.8782 5C78.7422 6.056 79.2702 7.224 79.4622 8.504C79.6542 9.784 79.5262 11.016 79.0782 12.2C78.6302 13.384 77.8462 14.456 76.7262 15.416C75.6062 16.376 74.1662 17.064 72.4062 17.48C73.5902 17.64 74.6782 18.184 75.6702 19.112C76.6942 20.04 77.7022 21.16 78.6942 22.472C79.6862 23.784 80.7102 25.176 81.7662 26.648C82.8222 28.12 84.0062 29.48 85.3182 30.728C86.6302 31.976 88.1022 33 89.7342 33.8C91.3662 34.6 93.2382 34.984 95.3502 34.952C98.0702 34.888 100.342 34.36 102.166 33.368C103.99 32.376 105.43 31.096 106.486 29.528C107.574 27.96 108.278 26.2 108.598 24.248C108.95 22.264 108.998 20.248 108.742 18.2C108.518 16.12 107.99 14.104 107.158 12.152C106.358 10.168 105.334 8.408 104.086 6.872C102.87 5.336 101.446 4.104 99.8142 3.176C98.1822 2.248 96.4222 1.784 94.5342 1.784C93.8942 1.784 93.2382 1.848 92.5662 1.976C91.9262 2.104 91.2702 2.28 90.5982 2.504C89.0622 2.984 87.7182 3.72 86.5662 4.712C85.4142 5.672 84.4382 6.776 83.6382 8.024C82.8702 9.272 82.2462 10.616 81.7662 12.056C81.3182 13.464 81.0302 14.84 80.9022 16.184L80.4702 15.512C80.7262 13.592 81.2222 11.752 81.9582 9.992C82.7262 8.2 83.7662 6.632 85.0782 5.288C86.3902 3.944 87.9742 2.872 89.8302 2.072C91.6862 1.24 93.8462 0.823999 96.3102 0.823999C99.0302 0.823999 101.382 1.32 103.366 2.312C105.382 3.304 107.03 4.616 108.31 6.248C109.622 7.88 110.582 9.736 111.19 11.816C111.83 13.896 112.118 16.024 112.054 18.2C111.99 20.376 111.59 22.504 110.854 24.584C110.118 26.664 109.046 28.52 107.638 30.152C106.23 31.784 104.502 33.096 102.454 34.088C100.406 35.08 98.0222 35.576 95.3022 35.576C92.7742 35.576 90.5502 35.336 88.6302 34.856C86.7102 34.344 85.0462 33.672 83.6382 32.84C82.2302 32.008 81.0142 31.064 79.9902 30.008C78.9982 28.952 78.1182 27.88 77.3502 26.792C76.6142 25.672 75.9582 24.584 75.3822 23.528C74.8382 22.472 74.2942 21.528 73.7502 20.696C73.2062 19.832 72.6462 19.144 72.0702 18.632C71.4942 18.12 70.8062 17.848 70.0062 17.816C68.6302 17.816 67.4142 18.072 66.3582 18.584C65.3342 19.064 64.4702 19.736 63.7662 20.6C63.0622 21.432 62.5342 22.424 62.1822 23.576C61.8302 24.728 61.6542 25.96 61.6542 27.272V30.776C61.6542 31.896 61.8462 32.776 62.2302 33.416C62.6142 34.024 63.1262 34.552 63.7662 35H56.0382C56.6782 34.552 57.1902 34.024 57.5742 33.416C57.9582 32.776 58.1502 31.896 58.1502 30.776V5.624C58.1502 4.504 57.9582 3.64 57.5742 3.032C57.1902 2.392 56.6782 1.848 56.0382 1.4H68.9022ZM61.6542 1.832V24.2C62.2942 21.864 63.2542 20.2 64.5342 19.208C65.8142 18.184 67.3662 17.592 69.1902 17.432C70.7902 17.304 72.1182 16.84 73.1742 16.04C74.2622 15.208 75.0622 14.216 75.5742 13.064C76.1182 11.912 76.3902 10.68 76.3902 9.368C76.3902 8.024 76.1022 6.808 75.5262 5.72C74.9822 4.6 74.1502 3.672 73.0302 2.936C71.9422 2.2 70.5662 1.832 68.9022 1.832H61.6542ZM114.915 1.4H122.643C122.003 1.848 121.491 2.392 121.107 3.032C120.723 3.64 120.531 4.504 120.531 5.624V34.568H123.891C126.867 34.568 129.411 34.152 131.523 33.32C133.667 32.456 135.635 31.288 137.427 29.816L136.323 35H114.915C115.555 34.552 116.067 34.024 116.451 33.416C116.835 32.776 117.027 31.896 117.027 30.776V5.624C117.027 4.504 116.835 3.64 116.451 3.032C116.067 2.392 115.555 1.848 114.915 1.4ZM138.962 1.4H146.69C146.05 1.848 145.538 2.392 145.154 3.032C144.77 3.64 144.578 4.504 144.578 5.624V30.776C144.578 31.896 144.77 32.776 145.154 33.416C145.538 34.024 146.05 34.552 146.69 35H138.962C139.602 34.552 140.114 34.024 140.498 33.416C140.882 32.776 141.074 31.896 141.074 30.776V5.624C141.074 4.504 140.882 3.64 140.498 3.032C140.114 2.392 139.602 1.848 138.962 1.4ZM151.621 30.776V5.624C151.621 4.824 151.365 4.088 150.853 3.416C150.373 2.712 149.925 2.04 149.509 1.4H155.125C154.741 1.848 154.549 2.392 154.549 3.032C154.581 3.64 154.965 4.504 155.701 5.624L172.309 31.832V5.624C172.309 4.504 172.117 3.64 171.733 3.032C171.349 2.392 170.837 1.848 170.197 1.4H174.901C174.261 1.848 173.733 2.392 173.317 3.032C172.933 3.64 172.741 4.504 172.741 5.624V35H170.869L152.101 5.432V30.776C152.101 31.896 152.293 32.776 152.677 33.416C153.061 34.024 153.573 34.552 154.213 35H149.509C150.149 34.552 150.661 34.024 151.045 33.416C151.429 32.776 151.621 31.896 151.621 30.776ZM179.702 30.776L190.646 1.4H192.086L203.078 30.776C203.526 31.896 204.054 32.776 204.662 33.416C205.27 34.024 205.99 34.552 206.822 35H199.046C199.526 34.552 199.846 34.024 200.006 33.416C200.198 32.776 200.07 31.896 199.622 30.776L197.558 25.304H182.246L179.846 31.832C179.398 33.048 179.67 34.104 180.662 35H175.958C176.758 34.552 177.462 34.024 178.07 33.416C178.71 32.776 179.254 31.896 179.702 30.776ZM197.414 24.872L189.878 4.712L182.39 24.872H197.414ZM51.7338 57.1071C50.9838 57.1071 50.2457 57.0417 49.5195 56.9107C48.8052 56.7679 48.1862 56.5774 47.6624 56.3393V54.8036C48.2338 55.0417 48.8886 55.2262 49.6267 55.3571C50.3648 55.4881 51.1029 55.5536 51.841 55.5536C52.8886 55.5536 53.6922 55.4107 54.2517 55.125C54.8112 54.8274 55.091 54.4107 55.091 53.875C55.091 53.3869 54.9005 53 54.5195 52.7143C54.1386 52.4286 53.6624 52.1845 53.091 51.9821C52.5195 51.7679 51.9005 51.5655 51.2338 51.375C50.5791 51.1845 49.966 50.9524 49.3945 50.6786C48.8231 50.3929 48.3469 50.0357 47.966 49.6071C47.585 49.1786 47.3945 48.619 47.3945 47.9286C47.3945 46.9167 47.841 46.1369 48.7338 45.5893C49.6386 45.0298 50.9005 44.75 52.5195 44.75C53.2814 44.75 54.0136 44.8155 54.716 44.9464C55.4183 45.0774 56.0433 45.2679 56.591 45.5179V47.2679C55.9481 46.9583 55.2695 46.7202 54.5552 46.5536C53.841 46.3869 53.0969 46.3036 52.3231 46.3036C51.335 46.3036 50.5731 46.4405 50.0374 46.7143C49.5017 46.9881 49.2338 47.381 49.2338 47.8929C49.2338 48.3571 49.4183 48.7321 49.7874 49.0179C50.1683 49.2917 50.6386 49.5298 51.1981 49.7321C51.7695 49.9226 52.3826 50.1131 53.0374 50.3036C53.7041 50.4821 54.3172 50.7143 54.8767 51C55.4481 51.2738 55.9183 51.631 56.2874 52.0714C56.6683 52.5119 56.8588 53.0833 56.8588 53.7857C56.8588 54.8214 56.4005 55.6369 55.4838 56.2321C54.5791 56.8155 53.3291 57.1071 51.7338 57.1071ZM58.7422 44.8571H60.3136V50.0179H63.2422L66.6529 44.8571H68.4565L64.6172 50.7321L68.8315 57H66.9922L63.3136 51.5H60.3136V57H58.7422V44.8571ZM70.4219 44.8929H71.9933V57H70.4219V44.8929ZM74.4844 44.8571H76.2701L83.0737 54.6964V44.8571H84.6272V57H82.8415L76.0379 47.1607V57H74.4844V44.8571ZM101.094 56.3393C100.629 56.5774 100.064 56.7679 99.3973 56.9107C98.7426 57.0417 98.0759 57.1071 97.3973 57.1071C96.4211 57.1071 95.5342 56.9643 94.7366 56.6786C93.9509 56.381 93.2723 55.9643 92.7009 55.4286C92.1414 54.8929 91.7068 54.244 91.3973 53.4821C91.0997 52.7202 90.9509 51.869 90.9509 50.9286C90.9509 49.9881 91.1057 49.1369 91.4152 48.375C91.7247 47.6131 92.1592 46.9643 92.7187 46.4286C93.2783 45.8929 93.9568 45.4821 94.7545 45.1964C95.564 44.8988 96.4568 44.75 97.433 44.75C98.1116 44.75 98.7664 44.8214 99.3973 44.9643C100.04 45.0952 100.606 45.2798 101.094 45.5179V47.0536C100.629 46.8036 100.082 46.619 99.4509 46.5C98.8318 46.369 98.2009 46.3036 97.558 46.3036C96.7723 46.3036 96.0699 46.4107 95.4509 46.625C94.8318 46.8274 94.3021 47.131 93.8616 47.5357C93.4211 47.9286 93.0818 48.4107 92.8438 48.9821C92.6176 49.5536 92.5045 50.1964 92.5045 50.9107C92.5045 51.625 92.6176 52.2679 92.8438 52.8393C93.0699 53.4107 93.3973 53.8988 93.8259 54.3036C94.2545 54.7083 94.7842 55.0179 95.4152 55.2321C96.0461 55.4464 96.7604 55.5536 97.558 55.5536C98.2366 55.5536 98.8854 55.4881 99.5045 55.3571C100.124 55.2262 100.653 55.0417 101.094 54.8036V56.3393ZM103.371 44.8571H112.389V46.3393H104.943V50.1964H112.389V51.6786H104.943V55.5179H112.389V57H103.371V44.8571ZM114.465 44.8571H116.251L123.054 54.6964V44.8571H124.608V57H122.822L116.018 47.1607V57H114.465V44.8571ZM130.417 46.3393H126.435V44.8571H136.078V46.3393H131.971V57H130.417V46.3393ZM137.727 57.0179V44.8571H143.744C144.125 44.8571 144.518 44.9226 144.923 45.0536C145.328 45.1845 145.691 45.3869 146.012 45.6607C146.346 45.9345 146.613 46.2798 146.816 46.6964C147.03 47.1131 147.137 47.6131 147.137 48.1964C147.137 49.0417 146.905 49.7619 146.441 50.3571C145.977 50.9524 145.381 51.3571 144.655 51.5714L147.655 57.0179H145.869L143.03 51.75H139.298V57.0179H137.727ZM139.298 50.2857H143.762C143.988 50.2857 144.209 50.2381 144.423 50.1429C144.637 50.0357 144.828 49.8869 144.994 49.6964C145.173 49.506 145.31 49.2857 145.405 49.0357C145.512 48.7738 145.566 48.494 145.566 48.1964C145.566 47.8988 145.512 47.6369 145.405 47.4107C145.31 47.1726 145.173 46.9762 144.994 46.8214C144.828 46.6667 144.637 46.5476 144.423 46.4643C144.209 46.381 143.988 46.3393 143.762 46.3393H139.298V50.2857ZM149.562 44.8571H158.58V46.3393H151.134V50.1964H158.58V51.6786H151.134V55.5179H158.58V57H149.562V44.8571Z" fill="black"/>
</svg>
