<svg id="Layer_1" data-name="Layer 1" xmlns="http://www.w3.org/2000/svg" viewBox="0 0 151.2 141" height="100" width="auto"><defs><style>.cls-1{fill:#636464;}</style></defs><title>Glo-Gray-Logo2</title><polygon class="cls-1" points="92.1 122.3 92.8 122.3 92.8 113.1 98.6 122.3 99.5 122.3 99.5 112.2 98.8 112.2 98.8 121.2 93.1 112.2 92.1 112.2 92.1 122.3"/><rect class="cls-1" x="88.3" y="112.2" width="0.8" height="10.09"/><path class="cls-1" d="M106.9,168.4a2.1,2.1,0,0,0,1.7-2.2h0c0-1.8-1.3-2.6-3.1-2.6h-2.9v10.1H106c1.9,0,3.1-.9,3.1-2.8h0A2.3,2.3,0,0,0,106.9,168.4Zm-3.4-4.2h2.1c1.5,0,2.3.6,2.3,1.9h0c0,1.3-.7,1.9-2.3,1.9h-2.1Zm4.9,6.7c0,1.4-.8,2.1-2.4,2.1h-2.5v-4.3h2.2c1.8,0,2.7.7,2.7,2.1Z" transform="translate(-32.4 -37.5)"/><path class="cls-1" d="M122.8,163.6l-3.6,10.1h.7l1.1-3.1h4.5l1.1,3.1h.8l-3.6-10.1Zm-1.6,6.4,2-5.7,2,5.7Z" transform="translate(-32.4 -37.5)"/><polygon class="cls-1" points="105.9 126.8 109 126.8 109 136.2 109.8 136.2 109.8 126.8 112.9 126.8 112.9 126.1 105.9 126.1 105.9 126.8"/><polygon class="cls-1" points="118.1 131.1 115.1 126.1 114.2 126.1 117.6 131.7 117.6 136.2 118.4 136.2 118.4 131.7 121.7 126.1 120.9 126.1 118.1 131.1"/><path class="cls-1" d="M135.6,169.8c0,2.4-1,3.3-2.9,3.3s-2.8-1-2.8-3.1v-6.4h-.8v6.5c0,2.4,1.3,3.7,3.6,3.7s3.7-1.5,3.7-3.9v-6.3h-.8Z" transform="translate(-32.4 -37.5)"/><polygon class="cls-1" points="80 131.3 84 131.3 84 130.7 80 130.7 80 126.8 85 126.8 85 126.1 79.2 126.1 79.2 136.2 85.2 136.2 85.2 135.6 80 135.6 80 131.3"/><polygon class="cls-1" points="86 112.2 85.1 112.2 80.2 117.2 80.2 112.2 79.4 112.2 79.4 122.3 80.2 122.3 80.2 117.2 85.3 122.3 86.2 122.3 81.1 117.1 86 112.2"/><path class="cls-1" d="M106.1,154.1c-2.1-.3-2.7-.9-2.7-2s.9-1.9,2.4-1.9a2.2,2.2,0,0,1,2.5,1.9h.7c-.2-1.6-1.4-2.5-3.2-2.5s-3.2,1.1-3.2,2.6,1.1,2.3,3.3,2.7,2.7.8,2.7,2.2-1,2.2-2.6,2.2-2.8-1.1-3-2.4h-.8c.2,1.7,1.3,3,3.8,3s3.4-1.3,3.4-2.9S108.3,154.5,106.1,154.1Z" transform="translate(-32.4 -37.5)"/><path class="cls-1" d="M101.5,135.4H94.2c-.2,0-.3.2-.3.3s.1.3.3.3h27.1c.2,0,.3-.2.3-.3s-.1-.3-.3-.3h-7.4c-.7,0-.9-.2-.9-.5v-97c0-.3,0-.5-.3-.5H94.2c-.2,0-.3.2-.3.3s.1.3.3.3h7.4c.6,0,.9.2.9.5V135C102.4,135.3,102.1,135.4,101.5,135.4Z" transform="translate(-32.4 -37.5)"/><path class="cls-1" d="M175.4,86.4a26.9,26.9,0,0,0-39.6,0,30.7,30.7,0,0,0-8.2,21.1c0,16.4,12.5,29.8,27.9,29.8s28.1-13.4,28.1-29.8A30.6,30.6,0,0,0,175.4,86.4Zm-37,21.1c0-13.8,2.2-22.1,6.8-26.1,2.4-2.1,5.5-3.1,10.3-3.1s7.9.9,10.4,3.1c4.6,4,6.8,12.6,6.8,26.1,0,16.8-2.7,22.6-6.8,26.2s-5.8,3.1-10.4,3.1-7.8-1-10.3-3.1C140.3,129.5,138.4,122.4,138.4,107.5Z" transform="translate(-32.4 -37.5)"/><path class="cls-1" d="M88.4,137.3c-4.3-3-10.6-4.4-20-4.4H53c-8.7,0-12.3-3.2-12.3-10.9,0-2.9.5-6.3,4.3-8.9A21.9,21.9,0,0,0,62,120.8c12.2,0,22.2-9.6,22.2-21.5a21.8,21.8,0,0,0-4.4-13l-.3-.3-.3-.3a21.7,21.7,0,0,0-5.5-4.9H88.8c.2,0,.3-.2.3-.3s-.1-.3-.3-.3H72.5A22.3,22.3,0,0,0,62,77.7a21.9,21.9,0,0,0-22,21.6,21.2,21.2,0,0,0,4.8,13.3c-6.8,4.5-9.6,9.3-9.6,16.5s3.6,10.9,10.8,12.9a18.2,18.2,0,0,0-9.6,6.9,19.2,19.2,0,0,0-3.9,11c0,5,3,9.6,8.4,13.1s13.4,5.5,22.1,5.5a39.4,39.4,0,0,0,21.4-6.5c4.9-3.4,10.8-9.4,10.8-19C95.1,145.6,92.9,140.5,88.4,137.3Zm.7,21.4c0,12.5-13.2,19.1-26.2,19.1-7.2,0-12.4-1.5-16.1-4.4S41,165.2,41,158.3c0-8.8,3.4-14.2,6.2-16a25.3,25.3,0,0,0,4.5.4H74.8c4.8,0,8.5,1.6,11,4.7S89.1,154,89.1,158.7ZM54.6,80.3c1.8-1.4,3.9-2,7.3-2s5.7.6,7.5,2S74,88.9,74,99.2s-1.1,15.7-4.5,18.7c-1.8,1.6-4.1,2.3-7.5,2.3s-5.5-.7-7.3-2.3c-3.4-3-4.5-7.7-4.5-18.7S51.5,83.1,54.6,80.3Z" transform="translate(-32.4 -37.5)"/></svg>