<svg width="220" height="47" viewBox="0 0 220 47" fill="none" xmlns="http://www.w3.org/2000/svg">
<path d="M33.0578 13.9114H44.3956V14.5586H40.5074L46.4769 29.0897L52.724 14.5586H48.8817V13.9114H55.9633V14.5586H53.4631L45.828 32.4228C45.2421 33.7495 44.6869 35.0831 44.1623 36.4252C43.6377 37.7672 43.1132 39.1161 42.5886 40.4735C42.156 41.584 41.7251 42.5564 41.2925 43.3893C40.8599 44.2221 40.4052 44.9 39.9283 45.4262C39.4497 45.9508 38.9337 46.3442 38.3784 46.6065C37.8232 46.8688 37.1743 46.9999 36.4352 46.9999C35.5393 46.9999 34.8223 46.862 34.2841 46.5844C33.7425 46.3068 33.3201 45.9832 33.0119 45.6119C32.7036 45.2423 32.5026 44.8557 32.4106 44.4554C32.3187 44.0535 32.271 43.7146 32.271 43.437C32.271 42.6655 32.4873 42.0881 32.9182 41.7015C33.3508 41.3166 33.8736 41.1224 34.4919 41.1224C34.7065 41.1224 34.9381 41.1463 35.1868 41.1922C35.4337 41.2382 35.6636 41.3234 35.8799 41.446C36.0962 41.5686 36.2802 41.7389 36.4352 41.9552C36.5902 42.1715 36.6668 42.4338 36.6668 42.7421C36.6668 43.173 36.5357 43.5817 36.2734 43.9684C36.0111 44.3533 35.8799 44.7773 35.8799 45.2406C35.8799 45.6408 35.9872 45.9031 36.2035 46.0274C36.4181 46.1501 36.7128 46.2131 37.0824 46.2131C37.5763 46.2131 38.031 46.0973 38.4483 45.8657C38.8638 45.634 39.2726 45.2559 39.6745 44.7314C40.0748 44.2068 40.4767 43.5204 40.8787 42.6723C41.2789 41.8241 41.7268 40.7818 42.2207 39.5487L44.2577 34.3644L36.2512 14.5569H33.0578V13.9097V13.9114Z" fill="black"/>
<path d="M67.9481 0.396973H75.4913V33.116H79.0543V33.7632H71.603V29.7369H71.5111C71.3884 30.1065 71.2028 30.5544 70.9558 31.079C70.7089 31.6036 70.3461 32.1128 69.8692 32.6067C69.3907 33.1006 68.7894 33.5247 68.0639 33.879C67.3384 34.2332 66.451 34.4103 65.4036 34.4103C64.0445 34.4103 62.7586 34.1174 61.5392 33.5315C60.3197 32.9456 59.2485 32.1588 58.3237 31.171C57.3971 30.1832 56.6648 29.0506 56.1249 27.7698C55.585 26.4891 55.3159 25.1402 55.3159 23.7215C55.3159 22.3334 55.5782 21.0066 56.1028 19.7412C56.6273 18.4758 57.3358 17.3739 58.2317 16.432C59.1258 15.4919 60.1596 14.7357 61.3331 14.1651C62.5049 13.5946 63.755 13.3085 65.0817 13.3085C66.778 13.3085 68.1508 13.724 69.1999 14.5586C70.249 15.3914 70.9882 16.4099 71.4225 17.6123H71.5145V1.04417H67.9515V0.396973H67.9481ZM59.9416 23.1662C59.9416 24.7706 59.9876 26.2285 60.0813 27.5399C60.1733 28.8513 60.4049 29.9703 60.7762 30.8951C61.1458 31.8216 61.701 32.5301 62.4418 33.024C63.1827 33.5179 64.1842 33.7649 65.4496 33.7649C66.7457 33.7649 67.7863 33.4872 68.5731 32.932C69.36 32.3768 69.9697 31.6598 70.4006 30.7793C70.8332 29.9004 71.1261 28.9211 71.2794 27.8413C71.4344 26.7616 71.5111 25.7124 71.5111 24.6939C71.5111 23.4898 71.4872 22.4492 71.4429 21.5704C71.3969 20.6916 71.3118 19.9132 71.1875 19.2337C71.0648 18.5558 70.8945 17.9683 70.6782 17.4743C70.4619 16.9821 70.1996 16.5189 69.8914 16.0863C69.4281 15.4697 68.8269 14.9605 68.086 14.5586C67.3452 14.1583 66.405 13.9574 65.2622 13.9574C64.1824 13.9574 63.2951 14.1737 62.6019 14.6063C61.9088 15.0388 61.3689 15.6554 60.9823 16.4576C60.5956 17.2614 60.3266 18.2237 60.1733 19.3512C60.0183 20.477 59.9416 21.7492 59.9416 23.1696V23.1662Z" fill="black"/>
<path d="M80.4425 33.1159H84.0055V14.5585H80.4425V13.9113H87.8937V18.5848H87.9857C88.1083 18.1215 88.3093 17.5969 88.5869 17.011C88.8645 16.4252 89.2494 15.8614 89.7433 15.3215C90.2372 14.7816 90.8316 14.3269 91.5248 13.9573C92.2197 13.5877 93.0593 13.4021 94.0472 13.4021C94.7574 13.4021 95.3739 13.5179 95.8985 13.7478C96.423 13.9795 96.8539 14.2741 97.1946 14.6267C97.5335 14.9826 97.7804 15.3914 97.9354 15.8529C98.0887 16.3162 98.167 16.7794 98.167 17.241C98.167 18.2595 97.9354 18.9373 97.4722 19.2779C97.0089 19.6186 96.469 19.7872 95.8525 19.7872C94.4934 19.7872 93.8155 19.3563 93.8155 18.4911C93.8155 18.2135 93.8462 17.9904 93.9075 17.82C93.9688 17.6497 94.0386 17.4811 94.117 17.3108C94.1936 17.1422 94.2635 16.9497 94.3248 16.7317C94.3861 16.5171 94.4167 16.2072 94.4167 15.8052C94.4167 14.8191 93.8768 14.3235 92.7971 14.3235C92.3031 14.3235 91.7786 14.5091 91.2234 14.8787C90.6681 15.2483 90.1521 15.7899 89.6735 16.4984C89.1949 17.2086 88.7947 18.0653 88.4694 19.0667C88.1458 20.0699 87.9823 21.2195 87.9823 22.5156V33.1125H92.0085V33.7597H80.4391V33.1125L80.4425 33.1159Z" fill="black"/>
<path d="M118.995 33.2555C118.593 33.5638 118.114 33.8346 117.559 34.0645C117.004 34.2961 116.324 34.412 115.522 34.412C114.04 34.412 112.969 34.0952 112.306 33.4633C111.642 32.8314 111.187 31.9441 110.942 30.803H110.85C110.726 31.0806 110.557 31.4281 110.341 31.8436C110.125 32.2609 109.793 32.6628 109.346 33.0477C108.898 33.4344 108.306 33.7579 107.565 34.0202C106.824 34.2825 105.884 34.4137 104.743 34.4137C103.447 34.4137 102.413 34.2672 101.641 33.9742C100.87 33.6813 100.269 33.3202 99.8361 32.8876C99.4035 32.455 99.1191 31.9697 98.9794 31.4298C98.8397 30.8899 98.7716 30.3874 98.7716 29.9259C98.7716 28.8461 98.9862 27.9826 99.4188 27.3337C99.8514 26.6865 100.413 26.1688 101.108 25.7838C101.801 25.3989 102.573 25.0822 103.423 24.8352C104.271 24.5882 105.128 24.326 105.991 24.0484C107.01 23.7094 107.849 23.4165 108.514 23.1695C109.176 22.9226 109.694 22.6228 110.063 22.2669C110.433 21.9126 110.687 21.4647 110.826 20.9248C110.966 20.3849 111.034 19.6526 111.034 18.7277C111.034 17.9869 110.988 17.3244 110.896 16.7368C110.804 16.1509 110.634 15.6502 110.387 15.2329C110.14 14.8173 109.786 14.5006 109.323 14.2843C108.859 14.068 108.243 13.9607 107.471 13.9607C106.453 13.9607 105.613 14.1378 104.949 14.492C104.285 14.848 103.954 15.4254 103.954 16.2275C103.954 16.7521 104 17.2699 104.094 17.7774C104.186 18.2866 104.232 18.6647 104.232 18.9117C104.232 19.3443 104.077 19.7054 103.769 19.9983C103.46 20.2912 103.012 20.4377 102.427 20.4377C101.408 20.4377 100.776 20.2521 100.529 19.8825C100.282 19.5129 100.16 19.0343 100.16 18.4484C100.16 17.7706 100.313 17.1217 100.623 16.5052C100.931 15.8886 101.388 15.3402 101.989 14.8633C102.59 14.3847 103.346 14.0067 104.256 13.729C105.165 13.4514 106.208 13.3135 107.379 13.3135C108.798 13.3135 109.987 13.4906 110.942 13.8449C111.898 14.2008 112.669 14.6777 113.257 15.2789C113.843 15.8801 114.258 16.5597 114.507 17.3159C114.754 18.072 114.876 18.8657 114.876 19.6985V31.222C114.876 32.1178 115.016 32.719 115.294 33.0256C115.571 33.3339 115.972 33.4888 116.498 33.4888C116.837 33.4888 117.193 33.4275 117.562 33.3032C117.932 33.1806 118.288 32.9949 118.627 32.748L118.996 33.2572L118.995 33.2555ZM110.896 22.4253H110.804C110.741 22.8272 110.234 23.2274 109.277 23.6294L105.806 25.0174C104.818 25.4194 104.062 25.9814 103.539 26.707C103.012 27.4325 102.752 28.3352 102.752 29.4149C102.752 29.8782 102.798 30.3551 102.891 30.849C102.983 31.3429 103.154 31.7823 103.401 32.1672C103.648 32.5538 103.995 32.8689 104.443 33.1159C104.889 33.3628 105.468 33.4854 106.179 33.4854C107.197 33.4854 108.021 33.2709 108.653 32.8383C109.285 32.4074 109.764 31.8658 110.089 31.2186C110.413 30.5714 110.629 29.8697 110.736 29.1135C110.843 28.3573 110.898 27.6709 110.898 27.0544V22.4253H110.896Z" fill="black"/>
<path d="M0 33.1177H5.13496V1.47336H0V0.826172H14.8974V1.47336H9.76239V16.6023H25.169V1.47336H20.034V0.826172H34.9314V1.47336H29.7964V33.1177H34.9314V33.7649H20.034V33.1177H25.169V17.2495H9.76239V33.1177H14.8974V33.7649H0V33.1177Z" fill="black"/>
<path d="M154.089 33.2555C153.687 33.5638 153.209 33.8346 152.654 34.0645C152.098 34.2961 151.419 34.412 150.617 34.412C149.135 34.412 148.064 34.0952 147.401 33.4633C146.737 32.8314 146.282 31.9441 146.037 30.803H145.945C145.821 31.0806 145.652 31.4281 145.436 31.8436C145.219 32.2609 144.887 32.6628 144.441 33.0477C143.993 33.4344 143.401 33.7579 142.66 34.0202C141.919 34.2825 140.979 34.4137 139.838 34.4137C138.541 34.4137 137.508 34.2672 136.736 33.9742C135.965 33.6813 135.363 33.3202 134.931 32.8876C134.498 32.455 134.214 31.9697 134.074 31.4298C133.934 30.8899 133.866 30.3874 133.866 29.9259C133.866 28.8461 134.081 27.9826 134.514 27.3337C134.946 26.6865 135.508 26.1688 136.203 25.7838C136.896 25.3989 137.668 25.0822 138.518 24.8352C139.366 24.5882 140.222 24.326 141.086 24.0484C142.104 23.7094 142.944 23.4165 143.608 23.1695C144.271 22.9226 144.789 22.6228 145.158 22.2669C145.528 21.9126 145.781 21.4647 145.921 20.9248C146.061 20.3849 146.129 19.6526 146.129 18.7277C146.129 17.9869 146.083 17.3244 145.991 16.7368C145.899 16.1509 145.729 15.6502 145.482 15.2329C145.235 14.8173 144.881 14.5006 144.417 14.2843C143.954 14.068 143.337 13.9607 142.566 13.9607C141.547 13.9607 140.708 14.1378 140.044 14.492C139.379 14.848 139.049 15.4254 139.049 16.2275C139.049 16.7521 139.095 17.2699 139.189 17.7774C139.281 18.2866 139.327 18.6647 139.327 18.9117C139.327 19.3443 139.172 19.7054 138.863 19.9983C138.555 20.2912 138.107 20.4377 137.521 20.4377C136.503 20.4377 135.871 20.2521 135.624 19.8825C135.377 19.5129 135.254 19.0343 135.254 18.4484C135.254 17.7706 135.408 17.1217 135.718 16.5052C136.026 15.8886 136.482 15.3402 137.084 14.8633C137.685 14.3847 138.441 14.0067 139.35 13.729C140.26 13.4514 141.302 13.3135 142.474 13.3135C143.893 13.3135 145.082 13.4906 146.037 13.8449C146.992 14.2008 147.764 14.6777 148.352 15.2789C148.937 15.8801 149.353 16.5597 149.602 17.3159C149.849 18.072 149.971 18.8657 149.971 19.6985V31.222C149.971 32.1178 150.111 32.719 150.388 33.0256C150.666 33.3339 151.066 33.4888 151.593 33.4888C151.932 33.4888 152.287 33.4275 152.657 33.3032C153.027 33.1806 153.383 32.9949 153.722 32.748L154.091 33.2572L154.089 33.2555ZM145.991 22.4253H145.899C145.836 22.8272 145.328 23.2274 144.371 23.6294L140.9 25.0174C139.912 25.4194 139.156 25.9814 138.633 26.707C138.107 27.4325 137.847 28.3352 137.847 29.4149C137.847 29.8782 137.893 30.3551 137.986 30.849C138.078 31.3429 138.249 31.7823 138.495 32.1672C138.742 32.5538 139.09 32.8689 139.538 33.1159C139.984 33.3628 140.563 33.4854 141.273 33.4854C142.292 33.4854 143.116 33.2709 143.748 32.8383C144.38 32.4074 144.858 31.8658 145.184 31.2186C145.507 30.5714 145.724 29.8697 145.831 29.1135C145.938 28.3573 145.993 27.6709 145.993 27.0544V22.4253H145.991Z" fill="black"/>
<path d="M172.802 28.6743C172.71 29.0149 172.531 29.5003 172.271 30.1322C172.008 30.7658 171.593 31.3976 171.02 32.0295C170.45 32.6631 169.678 33.2183 168.706 33.6952C167.735 34.1737 166.476 34.4122 164.935 34.4122C163.762 34.4122 162.544 34.2265 161.278 33.857C160.013 33.4874 158.857 32.893 157.807 32.0755C156.758 31.258 155.902 30.185 155.239 28.86C154.575 27.5332 154.245 25.8982 154.245 23.9532C154.245 22.4425 154.529 21.0374 155.101 19.7414C155.672 18.4453 156.443 17.3195 157.416 16.364C158.388 15.4086 159.529 14.6592 160.841 14.1193C162.152 13.5794 163.549 13.3103 165.029 13.3103C165.862 13.3103 166.718 13.4108 167.597 13.6118C168.476 13.8127 169.278 14.121 170.004 14.5383C170.727 14.9538 171.329 15.4954 171.809 16.158C172.286 16.8222 172.526 17.6312 172.526 18.5883C172.526 19.2355 172.318 19.7686 171.903 20.1859C171.485 20.6014 170.891 20.8109 170.121 20.8109C169.595 20.8109 169.094 20.6951 168.617 20.4635C168.139 20.2319 167.9 19.8384 167.9 19.2832C167.9 18.8506 168.008 18.3278 168.224 17.7095C168.438 17.093 168.547 16.5837 168.547 16.1818C168.547 15.4733 168.192 14.9249 167.483 14.54C166.773 14.1551 165.957 13.9609 165.03 13.9609C164.351 13.9609 163.649 14.0461 162.925 14.2147C162.2 14.385 161.537 14.8091 160.934 15.4869C160.333 16.1648 159.839 17.1832 159.453 18.5406C159.068 19.8997 158.874 21.7494 158.874 24.0946C158.874 25.4213 158.959 26.6714 159.129 27.8432C159.298 29.0166 159.606 30.0419 160.054 30.9208C160.502 31.7996 161.118 32.4945 161.905 33.0037C162.692 33.5129 163.717 33.7667 164.983 33.7667C166.34 33.7667 167.457 33.5674 168.338 33.1655C169.217 32.7653 169.912 32.2782 170.421 31.7076C170.93 31.1371 171.308 30.558 171.555 29.9721C171.802 29.3862 171.986 28.9076 172.11 28.5381L172.804 28.676L172.802 28.6743Z" fill="black"/>
<path d="M174.411 33.116H177.974V14.5586H174.411V13.9114H181.955V33.1177H185.518V33.7648H174.411V33.1177V33.116Z" fill="black"/>
<path d="M207.446 33.2555C207.044 33.5638 206.565 33.8346 206.01 34.0645C205.455 34.2961 204.775 34.412 203.973 34.412C202.491 34.412 201.42 34.0952 200.757 33.4633C200.093 32.8314 199.638 31.9441 199.393 30.803H199.301C199.177 31.0806 199.008 31.4281 198.792 31.8436C198.576 32.2609 198.244 32.6628 197.797 33.0477C197.349 33.4344 196.757 33.7579 196.016 34.0202C195.275 34.2825 194.335 34.4137 193.194 34.4137C191.898 34.4137 190.864 34.2672 190.092 33.9742C189.321 33.6813 188.72 33.3202 188.287 32.8876C187.854 32.455 187.57 31.9697 187.43 31.4298C187.291 30.8899 187.223 30.3874 187.223 29.9259C187.223 28.8461 187.437 27.9826 187.87 27.3337C188.302 26.6865 188.864 26.1688 189.559 25.7838C190.252 25.3989 191.024 25.0822 191.874 24.8352C192.722 24.5882 193.579 24.326 194.442 24.0484C195.461 23.7094 196.3 23.4165 196.964 23.1695C197.627 22.9226 198.145 22.6228 198.514 22.2669C198.884 21.9126 199.138 21.4647 199.277 20.9248C199.417 20.3849 199.485 19.6526 199.485 18.7277C199.485 17.9869 199.439 17.3244 199.347 16.7368C199.255 16.1509 199.085 15.6502 198.838 15.2329C198.591 14.8173 198.237 14.5006 197.773 14.2843C197.31 14.068 196.694 13.9607 195.922 13.9607C194.904 13.9607 194.064 14.1378 193.4 14.492C192.736 14.848 192.405 15.4254 192.405 16.2275C192.405 16.7521 192.451 17.2699 192.545 17.7774C192.637 18.2866 192.683 18.6647 192.683 18.9117C192.683 19.3443 192.528 19.7054 192.22 19.9983C191.911 20.2912 191.463 20.4377 190.877 20.4377C189.859 20.4377 189.227 20.2521 188.98 19.8825C188.733 19.5129 188.611 19.0343 188.611 18.4484C188.611 17.7706 188.764 17.1217 189.074 16.5052C189.382 15.8886 189.839 15.3402 190.44 14.8633C191.041 14.3847 191.797 14.0067 192.707 13.729C193.616 13.4514 194.658 13.3135 195.83 13.3135C197.249 13.3135 198.438 13.4906 199.393 13.8449C200.349 14.2008 201.12 14.6777 201.708 15.2789C202.294 15.8801 202.709 16.5597 202.958 17.3159C203.205 18.072 203.327 18.8657 203.327 19.6985V31.222C203.327 32.1178 203.467 32.719 203.745 33.0256C204.022 33.3339 204.423 33.4888 204.949 33.4888C205.288 33.4888 205.644 33.4275 206.013 33.3032C206.383 33.1806 206.739 32.9949 207.078 32.748L207.447 33.2572L207.446 33.2555ZM199.347 22.4253H199.255C199.192 22.8272 198.685 23.2274 197.727 23.6294L194.257 25.0174C193.269 25.4194 192.512 25.9814 191.99 26.707C191.463 27.4325 191.203 28.3352 191.203 29.4149C191.203 29.8782 191.249 30.3551 191.342 30.849C191.434 31.3429 191.605 31.7823 191.852 32.1672C192.099 32.5538 192.446 32.8689 192.894 33.1159C193.34 33.3628 193.919 33.4854 194.629 33.4854C195.648 33.4854 196.472 33.2709 197.104 32.8383C197.736 32.4074 198.215 31.8658 198.54 31.2186C198.863 30.5714 199.08 29.8697 199.187 29.1135C199.294 28.3573 199.349 27.6709 199.349 27.0544V22.4253H199.347Z" fill="black"/>
<path d="M208.055 33.116H211.618V1.04417H208.055V0.396973H215.598V33.116H219.161V33.7632H208.055V33.116Z" fill="black"/>
<path d="M126.553 7.47868C126.553 6.27627 126.678 5.23905 126.92 4.36194C126.94 4.27848 126.986 4.11158 127.069 3.88846C127.291 3.26341 127.579 2.73033 127.941 2.29603C127.981 2.24835 128.023 2.20747 128.062 2.16319C128.912 1.1362 131.082 0.248861 133.259 0.683162C133.337 0.540098 133.412 0.410656 133.482 0.259077C132.949 0.121123 132.163 -0.030455 131.322 0.00531085C129.965 0.0632176 128.866 0.361265 127.664 1.11576C126.461 1.87195 125.458 2.75758 124.656 3.77606C124.348 4.14564 124.07 4.5561 123.823 5.00232C123.576 5.45024 123.36 5.97481 123.176 6.57602C122.99 7.17722 122.844 7.87211 122.737 8.65896C122.628 9.44581 122.575 10.3791 122.575 11.4589V13.9114H119.012V14.5586H122.575V33.116H120.24V33.7649H130.765V33.116H126.553V14.5586H132.293V13.9114H126.553V7.47868Z" fill="black"/>
<path d="M138.443 4.72137C138.443 6.04812 137.366 7.1245 136.04 7.1245C134.713 7.1245 133.637 6.04812 133.637 4.72137C133.637 2.99439 135.628 2.96714 134.861 0.720703C137.026 1.40536 138.441 3.1596 138.441 4.72137H138.443Z" fill="black"/>
<path d="M177.314 6.15879C177.314 5.47754 177.554 4.89847 178.032 4.41818C178.513 3.9379 179.092 3.69775 179.773 3.69775C180.454 3.69775 181.033 3.9379 181.514 4.41818C181.994 4.89847 182.234 5.47924 182.234 6.15879C182.234 6.83834 181.994 7.42082 181.514 7.8994C181.033 8.37968 180.452 8.61812 179.773 8.61812C179.093 8.61812 178.511 8.37798 178.032 7.8994C177.552 7.41911 177.314 6.84005 177.314 6.15879Z" fill="black"/>
</svg>
