<svg width="434" height="37" viewBox="0 0 434 37" fill="none" xmlns="http://www.w3.org/2000/svg">
<path d="M14.8 4.52C17.52 4.52 19.8133 5.09333 21.68 6.24C23.5467 7.38667 25.04 8.88 26.16 10.72H22.48C21.3333 9.12 19.9867 7.82666 18.44 6.84C16.8933 5.82667 15.2 5.32 13.36 5.32C12.32 5.32 11.2133 5.52 10.04 5.92C8.46667 6.45333 7.2 7.26667 6.24 8.36C5.28 9.45333 4.57333 10.72 4.12 12.16C3.69333 13.5733 3.49333 15.0933 3.52 16.72C3.57333 18.32 3.81333 19.92 4.24 21.52C4.69333 23.0933 5.32 24.6 6.12 26.04C6.92 27.48 7.85333 28.7333 8.92 29.8C10.0133 30.84 11.2 31.64 12.48 32.2C13.7867 32.7333 15.1733 32.9067 16.64 32.72C17.9733 32.5333 19.1333 32.1733 20.12 31.64C21.1333 31.08 21.9867 30.4133 22.68 29.64C23.4 28.84 23.9867 27.9733 24.44 27.04C24.8933 26.08 25.24 25.12 25.48 24.16C25.72 23.2 25.8933 22.2533 26 21.32C26.1067 20.3867 26.2267 19.56 26.36 18.84C26.52 18.0933 26.7333 17.5067 27 17.08C27.2667 16.6267 27.68 16.4 28.24 16.4C28.6933 16.4 29.08 16.6267 29.4 17.08C29.72 17.5333 30.04 18.0933 30.36 18.76C30.68 19.4267 31.0267 20.1467 31.4 20.92C31.8 21.6667 32.3067 22.3467 32.92 22.96C33.5333 23.5467 34.2933 24.0133 35.2 24.36C36.1333 24.68 37.28 24.7467 38.64 24.56L31.36 5H34.24L43.4 29.48C43.7733 30.4133 44.2133 31.1467 44.72 31.68C45.2267 32.1867 45.8133 32.6267 46.48 33H40.04C40.44 32.6267 40.6933 32.1867 40.8 31.68C40.9333 31.1467 40.8267 30.4133 40.48 29.48L38.8 24.92C37.36 25.1067 36.1467 25.04 35.16 24.72C34.2 24.3733 33.3867 23.9067 32.72 23.32C32.08 22.7067 31.56 22.0267 31.16 21.28C30.76 20.5333 30.4133 19.8267 30.12 19.16C29.8267 18.4933 29.5333 17.9333 29.24 17.48C28.9733 17.0267 28.64 16.8 28.24 16.8C27.76 16.8 27.4133 17.0133 27.2 17.44C26.9867 17.84 26.8133 18.3867 26.68 19.08C26.5467 19.7733 26.4267 20.5733 26.32 21.48C26.24 22.3867 26.08 23.32 25.84 24.28C25.5733 25.3733 25.1733 26.4667 24.64 27.56C24.1333 28.6267 23.44 29.6 22.56 30.48C21.68 31.3333 20.6 32.04 19.32 32.6C18.04 33.16 16.5067 33.4533 14.72 33.48C12.4533 33.48 10.48 33.0667 8.8 32.24C7.12 31.4133 5.70667 30.32 4.56 28.96C3.44 27.6 2.6 26.0533 2.04 24.32C1.50667 22.5867 1.24 20.8133 1.24 19C1.24 17.1867 1.52 15.4133 2.08 13.68C2.66667 11.9467 3.52 10.4 4.64 9.04C5.76 7.68 7.16 6.58666 8.84 5.76C10.5467 4.93333 12.5333 4.52 14.8 4.52ZM56.3719 5C58.1585 5 59.6785 5.28 60.9319 5.84C62.1852 6.4 63.1585 7.12 63.8519 8C64.5719 8.88 65.0119 9.85333 65.1719 10.92C65.3319 11.9867 65.2252 13.0133 64.8519 14C64.4785 14.9867 63.8252 15.88 62.8919 16.68C61.9585 17.48 60.7585 18.0533 59.2919 18.4C60.2785 18.5333 61.1852 18.9867 62.0119 19.76C62.8652 20.5333 63.7052 21.4667 64.5319 22.56C65.3585 23.6533 66.2119 24.8133 67.0919 26.04C67.9719 27.2667 68.9585 28.4 70.0519 29.44C71.1452 30.48 72.3719 31.3333 73.7319 32C75.0919 32.6667 76.6519 32.9867 78.4119 32.96C80.6785 32.9067 82.5719 32.4667 84.0919 31.64C85.6119 30.8133 86.8119 29.7467 87.6919 28.44C88.5985 27.1333 89.1852 25.6667 89.4519 24.04C89.7452 22.3867 89.7852 20.7067 89.5719 19C89.3852 17.2667 88.9452 15.5867 88.2519 13.96C87.5852 12.3067 86.7319 10.84 85.6919 9.56C84.6785 8.28 83.4919 7.25333 82.1319 6.48C80.7719 5.70667 79.3052 5.32 77.7319 5.32C77.1985 5.32 76.6519 5.37333 76.0919 5.48C75.5585 5.58667 75.0119 5.73333 74.4519 5.92C73.1719 6.32 72.0519 6.93333 71.0919 7.76C70.1319 8.56 69.3185 9.48 68.6519 10.52C68.0119 11.56 67.4919 12.68 67.0919 13.88C66.7185 15.0533 66.4785 16.2 66.3719 17.32L66.0119 16.76C66.2252 15.16 66.6385 13.6267 67.2519 12.16C67.8919 10.6667 68.7585 9.36 69.8519 8.24C70.9452 7.12 72.2652 6.22667 73.8119 5.56C75.3585 4.86667 77.1585 4.52 79.2119 4.52C81.4785 4.52 83.4385 4.93333 85.0919 5.76C86.7719 6.58666 88.1452 7.68 89.2119 9.04C90.3052 10.4 91.1052 11.9467 91.6119 13.68C92.1452 15.4133 92.3852 17.1867 92.3319 19C92.2785 20.8133 91.9452 22.5867 91.3319 24.32C90.7185 26.0533 89.8252 27.6 88.6519 28.96C87.4785 30.32 86.0385 31.4133 84.3319 32.24C82.6252 33.0667 80.6385 33.48 78.3719 33.48C76.2652 33.48 74.4119 33.28 72.8119 32.88C71.2119 32.4533 69.8252 31.8933 68.6519 31.2C67.4785 30.5067 66.4652 29.72 65.6119 28.84C64.7852 27.96 64.0519 27.0667 63.4119 26.16C62.7985 25.2267 62.2519 24.32 61.7719 23.44C61.3185 22.56 60.8652 21.7733 60.4119 21.08C59.9585 20.36 59.4919 19.7867 59.0119 19.36C58.5319 18.9333 57.9585 18.7067 57.2919 18.68C56.1452 18.68 55.1319 18.8933 54.2519 19.32C53.3985 19.72 52.6785 20.28 52.0919 21C51.5052 21.6933 51.0652 22.52 50.7719 23.48C50.4785 24.44 50.3319 25.4667 50.3319 26.56V29.48C50.3319 30.4133 50.4919 31.1467 50.8119 31.68C51.1319 32.1867 51.5585 32.6267 52.0919 33H45.6519C46.1852 32.6267 46.6119 32.1867 46.9319 31.68C47.2519 31.1467 47.4119 30.4133 47.4119 29.48V8.52C47.4119 7.58667 47.2519 6.86667 46.9319 6.36C46.6119 5.82667 46.1852 5.37333 45.6519 5H56.3719ZM50.3319 5.36V24C50.8652 22.0533 51.6652 20.6667 52.7319 19.84C53.7985 18.9867 55.0919 18.4933 56.6119 18.36C57.9452 18.2533 59.0519 17.8667 59.9319 17.2C60.8385 16.5067 61.5052 15.68 61.9319 14.72C62.3852 13.76 62.6119 12.7333 62.6119 11.64C62.6119 10.52 62.3719 9.50667 61.8919 8.6C61.4385 7.66667 60.7452 6.89333 59.8119 6.28C58.9052 5.66666 57.7585 5.36 56.3719 5.36H50.3319ZM93.1163 5H99.5563C99.0229 5.37333 98.5963 5.82667 98.2763 6.36C97.9563 6.86667 97.7963 7.58667 97.7963 8.52V32.64H100.596C103.076 32.64 105.196 32.2933 106.956 31.6C108.743 30.88 110.383 29.9067 111.876 28.68L110.956 33H93.1163C93.6496 32.6267 94.0763 32.1867 94.3963 31.68C94.7163 31.1467 94.8763 30.4133 94.8763 29.48V8.52C94.8763 7.58667 94.7163 6.86667 94.3963 6.36C94.0763 5.82667 93.6496 5.37333 93.1163 5ZM111.555 5H117.995C117.462 5.37333 117.035 5.82667 116.715 6.36C116.395 6.86667 116.235 7.58667 116.235 8.52V29.48C116.235 30.4133 116.395 31.1467 116.715 31.68C117.035 32.1867 117.462 32.6267 117.995 33H111.555C112.089 32.6267 112.515 32.1867 112.835 31.68C113.155 31.1467 113.315 30.4133 113.315 29.48V8.52C113.315 7.58667 113.155 6.86667 112.835 6.36C112.515 5.82667 112.089 5.37333 111.555 5ZM120.504 29.48V8.52C120.504 7.85333 120.291 7.24 119.864 6.68C119.464 6.09333 119.091 5.53333 118.744 5H123.424C123.104 5.37333 122.944 5.82667 122.944 6.36C122.971 6.86667 123.291 7.58667 123.904 8.52L137.744 30.36V8.52C137.744 7.58667 137.584 6.86667 137.264 6.36C136.944 5.82667 136.518 5.37333 135.984 5H139.904C139.371 5.37333 138.931 5.82667 138.584 6.36C138.264 6.86667 138.104 7.58667 138.104 8.52V33H136.544L120.904 8.36V29.48C120.904 30.4133 121.064 31.1467 121.384 31.68C121.704 32.1867 122.131 32.6267 122.664 33H118.744C119.278 32.6267 119.704 32.1867 120.024 31.68C120.344 31.1467 120.504 30.4133 120.504 29.48ZM142.305 29.48L151.425 5H152.625L161.785 29.48C162.158 30.4133 162.598 31.1467 163.105 31.68C163.611 32.1867 164.211 32.6267 164.905 33H158.425C158.825 32.6267 159.091 32.1867 159.225 31.68C159.385 31.1467 159.278 30.4133 158.905 29.48L157.185 24.92H144.425L142.425 30.36C142.051 31.3733 142.278 32.2533 143.105 33H139.185C139.851 32.6267 140.438 32.1867 140.945 31.68C141.478 31.1467 141.931 30.4133 142.305 29.48ZM157.065 24.56L150.785 7.76L144.545 24.56H157.065ZM186.976 4.56C188.336 4.56 189.642 4.64 190.896 4.8C192.176 4.93333 193.282 5.08 194.216 5.24L193.256 9.56C192.882 8.86667 192.376 8.25333 191.736 7.72C191.122 7.18667 190.429 6.74667 189.656 6.4C188.882 6.02667 188.056 5.76 187.176 5.6C186.322 5.41333 185.456 5.32 184.576 5.32C183.616 5.32 182.669 5.42667 181.736 5.64C180.829 5.85333 180.016 6.18666 179.296 6.64C178.576 7.06667 177.976 7.61333 177.496 8.28C177.016 8.92 176.736 9.68 176.656 10.56C176.549 11.9467 176.936 13.0533 177.816 13.88C178.696 14.7067 179.829 15.4 181.216 15.96C182.602 16.52 184.109 17.0267 185.736 17.48C187.389 17.9333 188.922 18.5067 190.336 19.2C191.776 19.8667 192.962 20.7333 193.896 21.8C194.856 22.84 195.336 24.2267 195.336 25.96C195.336 27.48 194.989 28.72 194.296 29.68C193.629 30.64 192.749 31.4 191.656 31.96C190.589 32.52 189.362 32.9067 187.976 33.12C186.616 33.3333 185.242 33.44 183.856 33.44C182.416 33.44 181.056 33.36 179.776 33.2C178.496 33.0667 177.389 32.92 176.456 32.76L177.416 28.44C177.789 29.1333 178.282 29.7467 178.896 30.28C179.536 30.7867 180.242 31.2133 181.016 31.56C181.816 31.9067 182.669 32.1733 183.576 32.36C184.482 32.52 185.389 32.6 186.296 32.6C187.389 32.6 188.456 32.4667 189.496 32.2C190.536 31.9333 191.442 31.5467 192.216 31.04C193.016 30.5067 193.642 29.84 194.096 29.04C194.576 28.2133 194.802 27.2667 194.776 26.2C194.749 25.3733 194.456 24.68 193.896 24.12C193.362 23.5333 192.656 23.04 191.776 22.64C190.896 22.2133 189.896 21.8267 188.776 21.48C187.682 21.1333 186.549 20.7867 185.376 20.44C184.202 20.0667 183.056 19.6667 181.936 19.24C180.842 18.7867 179.856 18.24 178.976 17.6C178.096 16.96 177.376 16.2 176.816 15.32C176.282 14.4133 176.002 13.32 175.976 12.04C175.949 10.52 176.256 9.28 176.896 8.32C177.536 7.36 178.376 6.6 179.416 6.04C180.456 5.48 181.629 5.09333 182.936 4.88C184.269 4.66667 185.616 4.56 186.976 4.56ZM197.737 29.48V8.52C197.737 7.58667 197.577 6.86667 197.257 6.36C196.937 5.82667 196.511 5.37333 195.977 5H202.417C201.884 5.37333 201.457 5.82667 201.137 6.36C200.817 6.86667 200.657 7.58667 200.657 8.52V24.2C200.924 22.7333 201.377 21.3333 202.017 20C202.684 18.64 203.431 17.36 204.257 16.16C205.084 14.9333 205.951 13.7867 206.857 12.72C207.764 11.6533 208.577 10.6533 209.297 9.72C210.044 8.78667 210.657 7.93333 211.137 7.16C211.617 6.36 211.857 5.64 211.857 5H216.257C215.484 5.34667 214.657 5.85333 213.777 6.52C212.924 7.18667 212.057 7.94667 211.177 8.8C210.297 9.62667 209.444 10.5067 208.617 11.44C207.791 12.3733 207.017 13.3067 206.297 14.24C205.577 15.1467 204.937 16 204.377 16.8C203.844 17.6 203.417 18.2933 203.097 18.88C204.164 18.0533 205.404 17.64 206.817 17.64C207.511 17.64 208.177 17.7467 208.817 17.96C209.484 18.1467 210.097 18.44 210.657 18.84C211.244 19.24 211.764 19.7333 212.217 20.32C212.671 20.88 213.031 21.5333 213.297 22.28L215.937 29.48C216.284 30.4133 216.711 31.1467 217.217 31.68C217.724 32.1867 218.324 32.6267 219.017 33H212.537C212.937 32.6267 213.204 32.1867 213.337 31.68C213.497 31.1467 213.391 30.4133 213.017 29.48L210.497 22.56C210.284 21.9733 210.017 21.4 209.697 20.84C209.404 20.28 209.044 19.8 208.617 19.4C208.191 18.9733 207.697 18.6533 207.137 18.44C206.577 18.2267 205.937 18.1867 205.217 18.32C204.231 18.48 203.431 18.9867 202.817 19.84C202.231 20.6933 201.777 21.6933 201.457 22.84C201.137 23.96 200.924 25.1333 200.817 26.36C200.711 27.56 200.657 28.6 200.657 29.48C200.657 30.4133 200.817 31.1467 201.137 31.68C201.457 32.1867 201.884 32.6267 202.417 33H195.977C196.511 32.6267 196.937 32.1867 197.257 31.68C197.577 31.1467 197.737 30.4133 197.737 29.48ZM218.518 5H224.958C224.424 5.37333 223.998 5.82667 223.678 6.36C223.358 6.86667 223.198 7.58667 223.198 8.52V29.48C223.198 30.4133 223.358 31.1467 223.678 31.68C223.998 32.1867 224.424 32.6267 224.958 33H218.518C219.051 32.6267 219.478 32.1867 219.798 31.68C220.118 31.1467 220.278 30.4133 220.278 29.48V8.52C220.278 7.58667 220.118 6.86667 219.798 6.36C219.478 5.82667 219.051 5.37333 218.518 5ZM227.467 29.48V8.52C227.467 7.85333 227.254 7.24 226.827 6.68C226.427 6.09333 226.054 5.53333 225.707 5H230.387C230.067 5.37333 229.907 5.82667 229.907 6.36C229.934 6.86667 230.254 7.58667 230.867 8.52L244.707 30.36V8.52C244.707 7.58667 244.547 6.86667 244.227 6.36C243.907 5.82667 243.48 5.37333 242.947 5H246.867C246.334 5.37333 245.894 5.82667 245.547 6.36C245.227 6.86667 245.067 7.58667 245.067 8.52V33H243.507L227.867 8.36V29.48C227.867 30.4133 228.027 31.1467 228.347 31.68C228.667 32.1867 229.094 32.6267 229.627 33H225.707C226.24 32.6267 226.667 32.1867 226.987 31.68C227.307 31.1467 227.467 30.4133 227.467 29.48ZM272.669 4.52C275.389 4.52 277.683 5.09333 279.549 6.24C281.443 7.38667 282.923 8.88 283.989 10.72H280.349C279.203 9.12 277.856 7.82666 276.309 6.84C274.763 5.82667 273.069 5.32 271.229 5.32C270.136 5.32 269.029 5.52 267.909 5.92C266.363 6.48 265.109 7.29333 264.149 8.36C263.216 9.4 262.523 10.6 262.069 11.96C261.616 13.32 261.403 14.7733 261.429 16.32C261.456 17.8667 261.669 19.4133 262.069 20.96C262.469 22.48 263.056 23.9467 263.829 25.36C264.603 26.7733 265.509 28.0267 266.549 29.12C267.589 30.2133 268.749 31.08 270.029 31.72C271.309 32.36 272.669 32.68 274.109 32.68C275.123 32.68 276.083 32.5333 276.989 32.24C277.923 31.9467 278.776 31.5333 279.549 31C280.349 30.4667 281.043 29.8267 281.629 29.08C282.243 28.3067 282.723 27.4533 283.069 26.52H284.429C283.896 27.5067 283.243 28.4267 282.469 29.28C281.723 30.1333 280.856 30.8667 279.869 31.48C278.909 32.0933 277.829 32.5867 276.629 32.96C275.429 33.3067 274.109 33.48 272.669 33.48C270.403 33.48 268.429 33.0667 266.749 32.24C265.069 31.4133 263.656 30.32 262.509 28.96C261.389 27.6 260.549 26.0533 259.989 24.32C259.429 22.5867 259.149 20.8133 259.149 19C259.149 17.1867 259.429 15.4133 259.989 13.68C260.549 11.9467 261.389 10.4 262.509 9.04C263.656 7.68 265.069 6.58666 266.749 5.76C268.429 4.93333 270.403 4.52 272.669 4.52ZM301.025 5L301.945 9.32C300.479 8.09333 298.852 7.13333 297.065 6.44C295.279 5.72 293.145 5.36 290.665 5.36H288.905V17.04H290.985C291.865 17.0133 292.652 16.9733 293.345 16.92C294.065 16.84 294.732 16.7333 295.345 16.6C295.959 16.44 296.559 16.2267 297.145 15.96C297.732 15.6933 298.319 15.3467 298.905 14.92V19.52C297.759 18.64 296.572 18.0667 295.345 17.8C294.145 17.5333 292.692 17.4 290.985 17.4H288.905V32.64H292.345C294.825 32.64 296.959 32.2933 298.745 31.6C300.532 30.88 302.159 29.9067 303.625 28.68L302.705 33H284.225C284.759 32.6267 285.185 32.1867 285.505 31.68C285.825 31.1467 285.985 30.4133 285.985 29.48V8.52C285.985 7.58667 285.825 6.86667 285.505 6.36C285.185 5.82667 284.759 5.37333 284.225 5H301.025ZM305.559 29.48V8.52C305.559 7.85333 305.346 7.24 304.919 6.68C304.519 6.09333 304.146 5.53333 303.799 5H308.479C308.159 5.37333 307.999 5.82667 307.999 6.36C308.026 6.86667 308.346 7.58667 308.959 8.52L322.799 30.36V8.52C322.799 7.58667 322.639 6.86667 322.319 6.36C321.999 5.82667 321.572 5.37333 321.039 5H324.959C324.426 5.37333 323.986 5.82667 323.639 6.36C323.319 6.86667 323.159 7.58667 323.159 8.52V33H321.599L305.959 8.36V29.48C305.959 30.4133 306.119 31.1467 306.439 31.68C306.759 32.1867 307.186 32.6267 307.719 33H303.799C304.332 32.6267 304.759 32.1867 305.079 31.68C305.399 31.1467 305.559 30.4133 305.559 29.48ZM324.479 9.32L325.399 5H346.559L347.479 9.32C346.999 8.68 346.426 8.12 345.759 7.64C345.093 7.13333 344.359 6.72 343.559 6.4C342.786 6.05333 341.986 5.8 341.159 5.64C340.333 5.45333 339.519 5.36 338.719 5.36H337.439V29.48C337.439 30.4133 337.599 31.1467 337.919 31.68C338.239 32.1867 338.666 32.6267 339.199 33H332.759C333.293 32.6267 333.719 32.1867 334.039 31.68C334.386 31.1467 334.559 30.4133 334.559 29.48V5.36H333.279C332.479 5.36 331.653 5.45333 330.799 5.64C329.973 5.8 329.173 6.05333 328.399 6.4C327.626 6.72 326.893 7.13333 326.199 7.64C325.533 8.12 324.959 8.68 324.479 9.32ZM357.921 5C359.707 5 361.227 5.28 362.481 5.84C363.734 6.4 364.707 7.12 365.401 8C366.121 8.88 366.561 9.85333 366.721 10.92C366.881 11.9867 366.774 13.0133 366.401 14C366.027 14.9867 365.374 15.88 364.441 16.68C363.507 17.48 362.307 18.0533 360.841 18.4C362.067 18.56 363.094 18.9867 363.921 19.68C364.747 20.3733 365.347 21.24 365.721 22.28L368.361 29.48C368.707 30.4133 369.134 31.1467 369.641 31.68C370.174 32.1867 370.774 32.6267 371.441 33H365.001C365.401 32.6267 365.667 32.1867 365.801 31.68C365.934 31.1467 365.827 30.4133 365.481 29.48L362.841 22.28C362.414 20.92 361.854 20 361.161 19.52C360.467 19.0133 359.694 18.7333 358.841 18.68C357.694 18.68 356.681 18.8933 355.801 19.32C354.947 19.72 354.227 20.28 353.641 21C353.054 21.6933 352.614 22.52 352.321 23.48C352.027 24.44 351.881 25.4667 351.881 26.56V29.48C351.881 30.4133 352.041 31.1467 352.361 31.68C352.681 32.1867 353.107 32.6267 353.641 33H347.201C347.734 32.6267 348.161 32.1867 348.481 31.68C348.801 31.1467 348.961 30.4133 348.961 29.48V8.52C348.961 7.58667 348.801 6.86667 348.481 6.36C348.161 5.82667 347.734 5.37333 347.201 5H357.921ZM351.881 5.36V24C352.414 22.0267 353.214 20.6267 354.281 19.8C355.347 18.9733 356.641 18.4933 358.161 18.36C359.494 18.2533 360.601 17.8667 361.481 17.2C362.387 16.5067 363.054 15.68 363.481 14.72C363.934 13.76 364.161 12.7333 364.161 11.64C364.161 10.52 363.921 9.50667 363.441 8.6C362.987 7.66667 362.294 6.89333 361.361 6.28C360.454 5.66666 359.307 5.36 357.921 5.36H351.881ZM387.672 5L388.592 9.32C387.126 8.09333 385.499 7.13333 383.712 6.44C381.926 5.72 379.792 5.36 377.312 5.36H375.552V17.04H377.632C378.512 17.0133 379.299 16.9733 379.992 16.92C380.712 16.84 381.379 16.7333 381.992 16.6C382.606 16.44 383.206 16.2267 383.792 15.96C384.379 15.6933 384.966 15.3467 385.552 14.92V19.52C384.406 18.64 383.219 18.0667 381.992 17.8C380.792 17.5333 379.339 17.4 377.632 17.4H375.552V32.64H378.992C381.472 32.64 383.606 32.2933 385.392 31.6C387.179 30.88 388.806 29.9067 390.272 28.68L389.352 33H370.872C371.406 32.6267 371.832 32.1867 372.152 31.68C372.472 31.1467 372.632 30.4133 372.632 29.48V8.52C372.632 7.58667 372.472 6.86667 372.152 6.36C371.832 5.82667 371.406 5.37333 370.872 5H387.672Z" fill="black"/>
<path d="M404.677 31.2303C405.18 31.2303 405.663 31.0305 406.018 30.6749C406.374 30.3193 406.574 29.837 406.574 29.334C406.574 28.8311 406.374 28.3488 406.018 27.9932C405.663 27.6376 405.18 27.4378 404.677 27.4378C404.175 27.4378 403.692 27.6376 403.337 27.9932C402.981 28.3488 402.781 28.8311 402.781 29.334C402.781 29.837 402.981 30.3193 403.337 30.6749C403.692 31.0305 404.175 31.2303 404.677 31.2303ZM428.265 29.1837C428.265 29.6866 428.065 30.169 427.71 30.5246C427.354 30.8802 426.872 31.08 426.369 31.08C425.866 31.08 425.384 30.8802 425.028 30.5246C424.672 30.169 424.473 29.6866 424.473 29.1837C424.473 28.6808 424.672 28.1985 425.028 27.8429C425.384 27.4873 425.866 27.2875 426.369 27.2875C426.872 27.2875 427.354 27.4873 427.71 27.8429C428.065 28.1985 428.265 28.6808 428.265 29.1837Z" fill="black"/>
<path d="M412.92 5.20708C412.874 5.1515 412.817 5.10498 412.751 5.07016C412.686 5.03534 412.614 5.01292 412.54 5.00416C412.465 4.99541 412.39 5.00049 412.317 5.01913C412.245 5.03777 412.177 5.0696 412.118 5.11279C412.058 5.15599 412.009 5.20971 411.972 5.27088C411.935 5.33206 411.911 5.39949 411.901 5.46933C411.892 5.53918 411.897 5.61006 411.917 5.67793C411.937 5.74581 411.971 5.80935 412.017 5.86493C413.236 7.33563 414.096 9.03983 414.534 10.8567C414.23 11.0949 413.997 11.4032 413.858 11.7513C413.72 12.0993 413.68 12.4752 413.743 12.842L404.72 5.64314C404.217 5.24672 403.566 5.00029 402.857 5.00029C402.099 5.00029 401.373 5.2825 400.837 5.78482C400.301 6.28715 400 6.96844 400 7.67884V18.1252C400 20.343 401.92 22.143 404.286 22.143H406.857C403.074 22.143 400 25.0251 400 28.5715C400 32.1179 403.074 35 406.857 35C408.283 34.9998 409.674 34.5828 410.835 33.8069C411.997 33.0311 412.871 31.9351 413.337 30.6715L414.571 27.9051C414.871 28.3079 415.369 28.5715 415.931 28.5715H416.057C416.624 28.5715 417.126 28.3036 417.424 27.8965L418.663 30.6715C419.129 31.9351 420.003 33.0311 421.165 33.8069C422.326 34.5828 423.717 34.9998 425.143 35C428.926 35 432 32.1179 432 28.5715C432 25.0251 428.926 22.143 425.143 22.143H427.714C430.08 22.143 432 20.343 432 18.1252V7.67884C432 6.96844 431.699 6.28715 431.163 5.78482C430.627 5.2825 429.901 5.00029 429.143 5.00029C428.434 5.00029 427.783 5.24672 427.28 5.64314L418.257 12.8431C418.275 12.7309 418.285 12.6166 418.286 12.5002C418.286 11.8402 417.967 11.2499 417.466 10.8567C417.904 9.03946 418.763 7.33487 419.983 5.86386C420.074 5.75146 420.114 5.61002 420.094 5.47022C420.074 5.33041 419.997 5.20352 419.878 5.11707C419.759 5.03062 419.608 4.99159 419.459 5.00844C419.31 5.02529 419.174 5.09666 419.08 5.20708C417.811 6.74034 416.901 8.50686 416.409 10.3917C416.139 10.3455 415.861 10.3455 415.591 10.3917C415.099 8.50686 414.189 6.74034 412.92 5.20708ZM422.183 21.0716H417.714V20.6012L420.309 19.1966C420.743 18.9716 421.291 19.0359 421.646 19.368L422.56 20.2251C422.891 20.5359 422.651 21.0716 422.183 21.0716ZM428.583 13.4859L417.714 19.3691V16.3477L427.966 8.48347C428.663 7.94776 429.714 8.41919 429.714 9.26561V11.6431C429.714 12.4038 429.28 13.1109 428.583 13.4859ZM414.274 21.0716H410.08C409.611 21.0716 409.371 20.5359 409.703 20.2251L410.617 19.368C410.971 19.0359 411.52 18.9716 411.954 19.1966L414.274 20.4523V21.0716ZM414.274 19.2212L403.68 13.4859C402.983 13.1109 402.549 12.4038 402.549 11.6431V9.26454C402.549 8.41812 403.6 7.94669 404.297 8.4824L414.274 16.1377V19.2212ZM428.32 14.8681C428.937 14.5252 429.714 14.9538 429.714 15.6288V17.7716C429.714 19.593 428.137 21.0716 426.194 21.0716C425.486 21.0716 424.8 20.8037 424.297 20.3323L422.731 18.8644C422.654 18.7923 422.595 18.7042 422.559 18.6071C422.524 18.51 422.513 18.4065 422.527 18.3048C422.542 18.2031 422.581 18.1059 422.642 18.0208C422.703 17.9357 422.785 17.8651 422.88 17.8145L428.32 14.8681ZM409.383 17.8145C409.794 18.0395 409.863 18.5537 409.531 18.8644L407.966 20.3323C407.463 20.8037 406.777 21.0716 406.069 21.0716C404.126 21.0716 402.549 19.593 402.549 17.7716V15.6288C402.549 14.9538 403.326 14.5252 403.943 14.8681L409.383 17.8145ZM408.731 23.7501H412.526C413.497 23.7501 414.16 24.6822 413.783 25.5072L412.754 27.8108C412.56 28.2394 411.966 28.3572 411.611 28.0251L408.24 24.8644C408.141 24.7738 408.073 24.6575 408.045 24.5304C408.017 24.4032 408.03 24.2712 408.083 24.1513C408.136 24.0313 408.226 23.929 408.342 23.8575C408.457 23.786 408.593 23.7486 408.731 23.7501ZM404.594 24.243C405.143 23.9858 405.794 24.093 406.229 24.5001L411.2 29.1501C411.623 29.5465 411.737 30.1572 411.486 30.6608C411.485 30.665 411.483 30.6686 411.48 30.6715C411.477 30.6736 411.475 30.6772 411.474 30.6822L411.463 30.7036C411.035 31.5271 410.363 32.2182 409.529 32.6949C408.694 33.1715 407.731 33.4138 406.754 33.3929C405.406 33.3745 404.12 32.8576 403.176 31.9547C402.232 31.0517 401.707 29.8358 401.714 28.5715C401.714 26.6751 402.891 25.0251 404.594 24.243ZM419.52 23.7501H423.314C423.943 23.7501 424.251 24.4572 423.806 24.8644L420.434 28.0251C420.08 28.3572 419.486 28.2394 419.291 27.8108L418.263 25.5072C417.886 24.6822 418.549 23.7501 419.52 23.7501ZM430.331 28.5715C430.331 31.2179 428.103 33.35 425.291 33.3929C424.314 33.4138 423.352 33.1715 422.517 32.6949C421.682 32.2182 421.011 31.5271 420.583 30.7036L420.571 30.6929C420.571 30.6879 420.569 30.6843 420.566 30.6822C420.562 30.68 420.56 30.6765 420.56 30.6715C420.309 30.1679 420.423 29.5572 420.846 29.1608L425.817 24.5001C426.251 24.093 426.903 23.9858 427.451 24.243C429.154 25.0251 430.331 26.6751 430.331 28.5715Z" fill="black"/>
</svg>
